# xmcd
#
# Track frame offsets:
#	150
#	13455
#	25617
#	41088
#	52560
#	74170
#	84053
#	95135
#	106984
#	117140
#	129574
#	140475
#	154373
#	166786
#	178822
#	194615
#	206169
#	228097
#	238276
#	249560
#
# Disc length: 3468 seconds
#
# Revision: 2
# Processed by: cddbd v1.5.2PL0 Copyright (c) Steve Scherf et al.
# Submitted via: dBpowerAMP V4.0
#
DISCID=1a0d8a14
DTITLE=Neznámý - Ceské koledy
DYEAR=2002
DGENRE=Koledy
TTITLE0=Stedrej vecer nastal
TTITLE1=Pasli ovce valasi
TTITLE2=Narodil se Kristus pan
TTITLE3=Pujdem spolu do Betlema
TTITLE4=Chtic aby spal
TTITLE5=Nesem vam noviny
TTITLE6=Ja bych rad k Betlemu
TTITLE7=Jak jsi krasne nevinatko
TTITLE8=Vesele vanocni hody
TTITLE9=Dej buh stesti
TTITLE10=Stesti, zdravi, pokoj svaty
TTITLE11=Slyseli jsme v Betlemu
TTITLE12=Stedrej vecer nastal
TTITLE13=Pasli ovce valasi
TTITLE14=Narodil se Kristus pan
TTITLE15=Pujdem spolu do Betlema
TTITLE16=Chtic aby spal
TTITLE17=Nesem vam noviny
TTITLE18=Ja bych rad k Betlemu
TTITLE19=Jak jsi krasne nevinatko
EXTD=
EXTT0=
EXTT1=
EXTT2=
EXTT3=
EXTT4=
EXTT5=
EXTT6=
EXTT7=
EXTT8=
EXTT9=
EXTT10=
EXTT11=
EXTT12=
EXTT13=
EXTT14=
EXTT15=
EXTT16=
EXTT17=
EXTT18=
EXTT19=
PLAYORDER=
